<?xml version="1.0"?>
<svg xmlns="http://www.w3.org/2000/svg" xmlns:xlink="http://www.w3.org/1999/xlink" version="1.1" id="Capa_1" x="0px" y="0px" viewBox="0 0 21.923 21.923" style="enable-background:new 0 0 21.923 21.923;" xml:space="preserve" width="512px" height="512px"><g><g>
	<path d="M21.662,15.975c-1.791-1.791-6.457-6.461-8.857-8.857c-0.779-0.781-1.287-1.287-1.287-1.287s1.865-1.865,3.039-3.037   c1.17-1.174-0.59-1.168-0.59-1.168S2.406,0,1.025,0C0.017,0,0.102,1.039,0.102,1.039l1.219,12.895c0,0-0.052,1.721,0.911,0.762   c0.963-0.967,3.29-3.291,3.29-3.291s0.568,0.568,1.436,1.434c2.48,2.486,6.998,7.002,8.836,8.84c0,0,0.371,0.629,1.125-0.131   c0.76-0.76,4.09-4.088,4.631-4.631C22.092,16.377,21.662,15.975,21.662,15.975z" data-original="#000000" class="active-path" data-old_color="#000000" fill="#374957"/>
	<g>
	</g>
	<g>
	</g>
	<g>
	</g>
	<g>
	</g>
	<g>
	</g>
	<g>
	</g>
	<g>
	</g>
	<g>
	</g>
	<g>
	</g>
	<g>
	</g>
	<g>
	</g>
	<g>
	</g>
	<g>
	</g>
	<g>
	</g>
	<g>
	</g>
</g></g> </svg>
